<svg clip-rule="evenodd" fill-rule="evenodd" stroke-linejoin="round" stroke-miterlimit="1.41421" viewBox="0 0 1039 650" xmlns="http://www.w3.org/2000/svg"><g fill="#fff"><path d="m64.207 302.022c13.424-11.946 23.479-28.092 29.209-49.633l.876-64.188c5.269-127.616 204.357-127.391 210.447-4.314 1.925 22.649 1.955 45.405 1.351 68.196 2.524 17.491 15.302 35.633 31.465 51.303-13.159 6.808-35.19 10.725-64.314 12.332-42.389 52.95-105.057 57.476-147.164-1.08-25.787-1.918-52.401-3.469-61.87-12.616zm46.738-94.68c12.432 1.171 22.765-7.073 30.987-21.856 3.622 7.585 4.347 15.172.837 22.764 19.611 1.485 33.818-7.965 41.267-31.091 8.193 9.323 9.969 21.066 8.499 34.032 33.306 3.12 65.556 1.037 95.318-13.305 4.659 163.143-156.658 212.467-176.908 9.456z"/><g fill-rule="nonzero"><path d="m154.908 371.197c2.468.896 3.247.928 5.287 2.671.756.646 1.347 1.463 2.02 2.195l37.838 52.493 35.748-51.771 2-2.257c2.531-1.745 5.288-3.143 8.298-3.14 1.005 0 1.995.244 2.993.366l29.158 7.222c2.669 1.047 3.544 1.087 5.664 3.128 5.393 5.192 4.685 15.549-2.214 19.71-2.788 1.681-6.145 1.801-9.46 1.429l-20.774-5.146-40.907 59.243-2.299 2.512c-1.935 1.204-3.923 2.42-6.16 2.751-3.414.504-6.978-.486-9.619-2.591-.888-.708-1.566-1.644-2.349-2.466l-43.218-59.957c-22.048 5.624-44.156 11.019-66.143 16.876-18.296 4.957-30.237 25.834-30.574 44.554l-.004.304-.62 162.721 227 .191c2.842.377 3.701.207 6.248 1.68 6.48 3.749 8.275 13.974 2.572 19.667-2.303 2.3-5.533 3.221-8.841 3.653l-239.538-.202c-2.169-.288-4.381-.597-6.259-1.686-2.864-1.66-4.986-4.483-5.815-7.618-.278-1.054-.277-2.162-.415-3.243l.669-175.362c.269-22.206 10.688-44.023 28.1-58.106 6.329-5.119 13.768-8.841 21.677-10.877l74.014-18.881 2.958-.387c.988.108 1.977.216 2.965.324z"/><path d="m577.02 321.824 94.255 25.662 2.072.767c14.318 6.79 26.204 18.291 34.069 32.095 7.345 12.89 11.541 27.31 14.107 42.035.169.97.228 1.95.309 2.928l-1.088 202.018c-.294 2.156-.609 4.352-1.694 6.218-1.654 2.844-4.455 4.954-7.569 5.789-1.046.28-2.147.284-3.221.426l-378.848.462c-3.267-.425-6.554-1.373-8.832-3.639-2.304-2.292-3.237-5.512-3.683-8.813l-.772-200.793c.499-23.932 8.189-48.045 25.474-65.612 6.086-6.185 13.07-11.445 20.52-15.896l.328-.195c1.767-.868 1.77-.869 3.651-1.448l96.16-21.483c3.969-.407 8.063.251 10.974 2.808.735.645 1.308 1.453 1.961 2.18l43.726 61.899 44.639-62.604 2.05-2.239c.843-.56 1.624-1.226 2.528-1.679 2.443-1.224 3.222-1.057 5.88-1.322 1.001.146 2.002.291 3.004.436zm-47.971 96.263c-.776.824-1.448 1.761-2.329 2.471-3.579 2.889-8.725 3.525-12.842 1.732-2.81-1.225-3.183-2.07-5.217-4.248l-49.081-69.482-86.04 19.222c-13.168 8.178-23.721 20.294-28.493 34.695-2.576 7.773-3.687 15.969-3.909 24.173l-.012.541.722 188.018 353.964-.432 1.014-188.49c-3.835-21.755-11.842-44.201-33.031-54.882l-.201-.1-84.737-23.071c-16.603 23.285-33.206 46.569-49.808 69.853z"/><path d="m890.213 371.724 79.377 18.859 2.775 1.019c16.587 8.431 30.565 22.154 37.905 39.051 3.36 7.727 5.45 15.969 6.57 24.343l.15 2.029-1.69 178.393c-.3 2.153-.62 4.348-1.71 6.208-1.67 2.837-4.48 4.936-7.59 5.759-1.05.277-2.15.277-3.22.416l-238.619-.516c-7.441-.996-14.257-7.558-12.04-15.761.845-3.126 2.975-5.932 5.841-7.578 2.551-1.466 3.41-1.293 6.253-1.661l226.206.489 1.557-165.091c-2.504-17.943-12.925-34.172-29.525-43.06 0 0-69.778-16.618-69.778-16.618l-42.1 59.857c-2.053 2.202-2.429 3.061-5.275 4.288-4.156 1.792-9.404 1.078-12.948-1.873-.879-.732-1.54-1.691-2.31-2.537l-40.69-59.344-19.502 5.213-3.235.424c-2.842-.376-3.702-.206-6.249-1.679-5.606-3.241-7.926-11.265-4.565-17.078 1.63-2.818 4.511-4.545 7.594-5.819l28.04-7.495c2.035-.283 4.108-.559 6.092-.091 2.983.702 5.373 2.754 7.446 5.098l35.509 51.788 36.617-52.063 1.986-2.209c.817-.56 1.573-1.22 2.451-1.679 2.369-1.237 3.131-1.097 5.726-1.42.984.112 1.967.225 2.951.338z"/></g><path d="m425.648 209.899c-24.154 18.13-38.564-35.866-17.489-40.013-15.214-102.787 26.163-152.238 121.857-150.498l.969-18.244 20.89 17.368 17.467-17.514 11.792 30.786 31.276-7.05-7.774 23.539c26.889 33.208 33.206 74.966 27.035 121.916 19.625 13.103-1.823 56.723-17.191 40.919-39.036 122.214-153.874 123.315-188.832-1.209zm6.727-47.674c58.396 7.485 106.822-3.64 139.04-45.019 3.445 26.02 12.403 45.969 31.844 54.381-28.952 172.477-164.215 137.436-170.884-9.362z"/><path d="m728.311 353.354c.087 3.207 1.984 6.088 4.896 7.436 2.911 1.348 6.335.931 8.838-1.078 15.391-12.351 38.742-31.093 38.742-31.093 39.436 35.997 79.429 36.015 119.98.053 0 0 21.966 17.737 37.391 30.191 2.747 2.218 6.519 2.672 9.713 1.169s5.249-4.698 5.291-8.228c.51-42.525 1.7-141.703 1.7-141.703-3.572-179.511-235.099-152.011-228.107-4.271 2.378 50.267.408 98.434 1.556 147.524zm27.43-138.863 103.309-3.865c10.987-8.241 18.026-21.355 22.675-35.868 6.741 11.6 6.334 24.422 3.1 37.727l38.084.596c-26.144 172.741-150.637 153.194-167.168 1.41z"/></g></svg>