<?xml version="1.0" encoding="UTF-8" standalone="no"?>
<!DOCTYPE svg PUBLIC "-//W3C//DTD SVG 1.1//EN" "http://www.w3.org/Graphics/SVG/1.1/DTD/svg11.dtd">
<svg width="100%" height="100%" viewBox="0 0 1039 650" version="1.1" xmlns="http://www.w3.org/2000/svg" xmlns:xlink="http://www.w3.org/1999/xlink" xml:space="preserve" xmlns:serif="http://www.serif.com/" style="fill-rule:evenodd;clip-rule:evenodd;stroke-linejoin:round;stroke-miterlimit:1.41421;">
    <path d="M64.207,302.022C77.631,290.076 87.686,273.93 93.416,252.389L94.292,188.201C99.561,60.585 298.649,60.81 304.739,183.887C306.664,206.536 306.694,229.292 306.09,252.083C308.614,269.574 321.392,287.716 337.555,303.386C324.396,310.194 302.365,314.111 273.241,315.718C230.852,368.668 168.184,373.194 126.077,314.638C100.29,312.72 73.676,311.169 64.207,302.022ZM110.945,207.342C123.377,208.513 133.71,200.269 141.932,185.486C145.554,193.071 146.279,200.658 142.769,208.25C162.38,209.735 176.587,200.285 184.036,177.159C192.229,186.482 194.005,198.225 192.535,211.191C225.841,214.311 258.091,212.228 287.853,197.886C292.512,361.029 131.195,410.353 110.945,207.342Z" style="fill:white;"/>
    <path d="M154.908,371.197C157.376,372.093 158.155,372.125 160.195,373.868C160.951,374.514 161.542,375.331 162.215,376.063L200.053,428.556L235.801,376.785L237.801,374.528C240.332,372.783 243.089,371.385 246.099,371.388C247.104,371.388 248.094,371.632 249.092,371.754L278.25,378.976C280.919,380.023 281.794,380.063 283.914,382.104C289.307,387.296 288.599,397.653 281.7,401.814C278.912,403.495 275.555,403.615 272.24,403.243L251.466,398.097L210.559,457.34L208.26,459.852C206.325,461.056 204.337,462.272 202.1,462.603C198.686,463.107 195.122,462.117 192.481,460.012C191.593,459.304 190.915,458.368 190.132,457.546L146.914,397.589C124.866,403.213 102.758,408.608 80.771,414.465C62.475,419.422 50.534,440.299 50.197,459.019L50.193,459.323L49.573,622.044L276.573,622.235C279.415,622.612 280.274,622.442 282.821,623.915C289.301,627.664 291.096,637.889 285.393,643.582C283.09,645.882 279.86,646.803 276.552,647.235L37.014,647.033C34.845,646.745 32.633,646.436 30.755,645.347C27.891,643.687 25.769,640.864 24.94,637.729C24.662,636.675 24.663,635.567 24.525,634.486L25.194,459.124C25.463,436.918 35.882,415.101 53.294,401.018C59.623,395.899 67.062,392.177 74.971,390.141L148.985,371.26L151.943,370.873C152.931,370.981 153.92,371.089 154.908,371.197Z" style="fill:white;fill-rule:nonzero;"/>
    <path d="M577.02,321.824L671.275,347.486L673.347,348.253C687.665,355.043 699.551,366.544 707.416,380.348C714.761,393.238 718.957,407.658 721.523,422.383C721.692,423.353 721.751,424.333 721.832,425.311L720.744,627.329C720.45,629.485 720.135,631.681 719.05,633.547C717.396,636.391 714.595,638.501 711.481,639.336C710.435,639.616 709.334,639.62 708.26,639.762L329.412,640.224C326.145,639.799 322.858,638.851 320.58,636.585C318.276,634.293 317.343,631.073 316.897,627.772L316.125,426.979C316.624,403.047 324.314,378.934 341.599,361.367C347.685,355.182 354.669,349.922 362.119,345.471L362.447,345.276C364.214,344.408 364.217,344.407 366.098,343.828L462.258,322.345C466.227,321.938 470.321,322.596 473.232,325.153C473.967,325.798 474.54,326.606 475.193,327.333L518.919,389.232L563.558,326.628L565.608,324.389C566.451,323.829 567.232,323.163 568.136,322.71C570.579,321.486 571.358,321.653 574.016,321.388C575.017,321.534 576.018,321.679 577.02,321.824ZM529.049,418.087C528.273,418.911 527.601,419.848 526.72,420.558C523.141,423.447 517.995,424.083 513.878,422.29C511.068,421.065 510.695,420.22 508.661,418.042L459.58,348.56L373.54,367.782C360.372,375.96 349.819,388.076 345.047,402.477C342.471,410.25 341.36,418.446 341.138,426.65L341.126,427.191L341.848,615.209L695.812,614.777L696.826,426.287C692.991,404.532 684.984,382.086 663.795,371.405L663.594,371.305L578.857,348.234C562.254,371.519 545.651,394.803 529.049,418.087Z" style="fill:white;fill-rule:nonzero;"/>
    <path d="M890.213,371.724L969.59,390.583L972.365,391.602C988.952,400.033 1002.93,413.756 1010.27,430.653C1013.63,438.38 1015.72,446.622 1016.84,454.996L1016.99,457.025L1015.3,635.418C1015,637.571 1014.68,639.766 1013.59,641.626C1011.92,644.463 1009.11,646.562 1006,647.385C1004.95,647.662 1003.85,647.662 1002.78,647.801L764.161,647.285C756.72,646.289 749.904,639.727 752.121,631.524C752.966,628.398 755.096,625.592 757.962,623.946C760.513,622.48 761.372,622.653 764.215,622.285L990.421,622.774L991.978,457.683C989.474,439.74 979.053,423.511 962.453,414.623C962.453,414.623 892.675,398.005 892.675,398.005L850.575,457.862C848.522,460.064 848.146,460.923 845.3,462.15C841.144,463.942 835.896,463.228 832.352,460.277C831.473,459.545 830.812,458.586 830.042,457.74L789.352,398.396L769.85,403.609L766.615,404.033C763.773,403.657 762.913,403.827 760.366,402.354C754.76,399.113 752.44,391.089 755.801,385.276C757.431,382.458 760.312,380.731 763.395,379.457L791.435,371.962C793.47,371.679 795.543,371.403 797.527,371.871C800.51,372.573 802.9,374.625 804.973,376.969L840.482,428.757L877.099,376.694L879.085,374.485C879.902,373.925 880.658,373.265 881.536,372.806C883.905,371.569 884.667,371.709 887.262,371.386C888.246,371.498 889.229,371.611 890.213,371.724Z" style="fill:white;fill-rule:nonzero;"/>
    <path d="M425.648,209.899C401.494,228.029 387.084,174.033 408.159,169.886C392.945,67.099 434.322,17.648 530.016,19.388L530.985,1.144L551.875,18.512L569.342,0.998L581.134,31.784L612.41,24.734L604.636,48.273C631.525,81.481 637.842,123.239 631.671,170.189C651.296,183.292 629.848,226.912 614.48,211.108C575.444,333.322 460.606,334.423 425.648,209.899ZM432.375,162.225C490.771,169.71 539.197,158.585 571.415,117.206C574.86,143.226 583.818,163.175 603.259,171.587C574.307,344.064 439.044,309.023 432.375,162.225Z" style="fill:white;"/>
    <path d="M728.311,353.354C728.398,356.561 730.295,359.442 733.207,360.79C736.118,362.138 739.542,361.721 742.045,359.712C757.436,347.361 780.787,328.619 780.787,328.619C820.223,364.616 860.216,364.634 900.767,328.672C900.767,328.672 922.733,346.409 938.158,358.863C940.905,361.081 944.677,361.535 947.871,360.032C951.065,358.529 953.12,355.334 953.162,351.804C953.672,309.279 954.862,210.101 954.862,210.101C951.29,30.59 719.763,58.09 726.755,205.83C729.133,256.097 727.163,304.264 728.311,353.354ZM755.741,214.491L859.05,210.626C870.037,202.385 877.076,189.271 881.725,174.758C888.466,186.358 888.059,199.18 884.825,212.485L922.909,213.081C896.765,385.822 772.272,366.275 755.741,214.491Z" style="fill:white;"/>
</svg>
