<?xml version="1.0" encoding="UTF-8" standalone="no"?>
<!DOCTYPE svg PUBLIC "-//W3C//DTD SVG 1.1//EN" "http://www.w3.org/Graphics/SVG/1.1/DTD/svg11.dtd">
<svg width="100%" height="100%" viewBox="0 0 1000 1000" version="1.1" xmlns="http://www.w3.org/2000/svg" xmlns:xlink="http://www.w3.org/1999/xlink" xml:space="preserve" xmlns:serif="http://www.serif.com/" style="fill-rule:evenodd;clip-rule:evenodd;stroke-linejoin:round;stroke-miterlimit:2;">
    <g transform="matrix(1.11111,0,0,1.11111,0,-111.675)">
        <g transform="matrix(1,0,0,1,66,162)">
            <path d="M43.166,404.821C59.347,387.383 66.263,367.531 64.743,345.483C47.194,212.458 245.725,222.255 218.296,349.686C215.941,370.757 223.451,389.201 240.712,405.048C221.808,411.258 202.754,413.323 183.663,414.377C160.252,438.885 134.354,450.281 99.425,414.047C80.791,413.401 62.01,409.76 43.166,404.821ZM79.33,332.637C88.398,327.948 95.602,322.45 98.532,315.097C100.073,320.85 97.318,326.14 93.752,331.343C109.684,335.642 119.989,326.286 127.488,310.125L128.799,332.055C150.355,338.796 175.321,338 202.357,332.628C196.691,429.548 110.404,488.024 79.33,332.637Z" style="fill:white;"/>
        </g>
        <g transform="matrix(1,0,0,1,66,162)">
            <path d="M23.76,554.16C45.34,464.425 37.959,473.438 95.093,451.486C91.767,474.859 89.58,496.631 89.755,519.474L141.939,488.304L193.545,520C193.975,497.461 192.555,474.581 188.205,451.161C204.762,456.216 219.488,463.56 232.949,472.488C225.254,499.66 219.519,526.857 216.941,554.16L23.76,554.16Z" style="fill:white;"/>
        </g>
        <g transform="matrix(1,0,0,1,66,162)">
            <path d="M239.601,554.16C261.672,460.091 236.308,474.977 335.997,443.925C344.465,462.901 361.338,476.45 382.412,489.687C413.45,467.519 419.884,460.489 427.615,443.621C525.006,474.076 507.925,457.673 523.825,554.16L239.601,554.16Z" style="fill:white;"/>
        </g>
        <g transform="matrix(1,0,0,1,66,162)">
            <path d="M388.081,239.201C386.318,234.159 386.138,229.131 387.146,224.113C392.732,228.938 398.413,233.94 404.347,239.418C407.704,232.851 411.144,226.508 415.58,222.855C416.354,231.941 419.131,241.298 424.443,250.208C432.768,245.303 441.002,240.83 447.872,242.734C442.682,248.698 439,254.828 438.388,261.295C461.179,284.368 466.652,310.478 456.354,339.352C467.02,348.603 456.152,373.446 446.009,373.613C407.215,460.575 351.331,454.663 316.725,373.765C304.833,374.179 297.135,346.84 306.393,339.562C286.157,286.839 329.444,238.502 388.081,239.201ZM319.866,334.145C364.97,338.407 399.678,329.807 419.968,303.37C422.028,322.773 429.57,336.263 442.419,344.027C418.821,457.768 339.61,456.102 319.866,334.145Z" style="fill:white;"/>
        </g>
        <g transform="matrix(1,0,0,1,66,162)">
            <path d="M534.496,451.386L539.051,337.277C534.886,225.741 690.372,212.886 695.631,336.411L701.105,451.328C683.837,446.859 669.314,433.724 655.199,419.302C628.966,442.522 603.498,443.555 578.944,418.089C564.206,434.31 549.407,446.502 534.496,451.386ZM556.277,336.86C571.959,325.831 601.191,329.828 628.29,331.458C640.772,321.28 647.822,309.965 648.317,297.278C653.797,306.674 656.35,317.436 655.258,329.898C663.165,330.298 671.053,331.119 678.814,334.675C670.662,439.24 580.393,475.255 556.277,336.86Z" style="fill:white;"/>
        </g>
        <g transform="matrix(1,0,0,1,66,162)">
            <path d="M529.733,470.197C542.737,462.712 557.06,457.509 572.443,454.139L594.505,525.324C609.583,533.509 625,533.706 640.857,525.018L662.395,453.706C729.131,478.36 723.275,471.873 744.24,554.16L548.095,554.16C544.142,526.269 538.587,497.578 529.733,470.197Z" style="fill:white;"/>
        </g>
    </g>
</svg>
